{
	"bufferViews":[{
		"buffer":0,
		"byteOffset":0,
		"byteLength":20328,
		"target":34963
	},
	{
		"buffer":0,
		"byteOffset":20328,
		"byteLength":51240,
		"target":34962,
		"byteStride":20
	},
	{
		"buffer":0,
		"byteOffset":71568,
		"byteLength":20496,
		"target":34962
	},
	{
		"buffer":0,
		"byteOffset":92064,
		"byteLength":40992,
		"target":34962
	},
	{
		"buffer":1,
		"byteOffset":0,
		"byteLength":960
	}],
	"nodes":[{
		"name":"Cloth",
		"translation":[0.0,
		0.0,
		0.0],
		"rotation":[0.0,
		0.0,
		0.0,
		-1.0],
		"scale":[1.0,
		1.0,
		1.0],
		"children":[1,
		66]
	},
	{
		"name":"DeformationSystem",
		"translation":[0.0,
		0.0,
		0.0],
		"rotation":[0.0,
		0.0,
		0.0,
		-1.0],
		"scale":[1.0,
		1.0,
		1.0],
		"children":[2]
	},
	{
		"name":"Root_M",
		"translation":[1.9709482594718228e-15,
		70.91410064697266,
		6.0981059074401859],
		"rotation":[0.4890207350254059,
		0.5107433199882507,
		0.4890207350254059,
		0.5107433199882507],
		"scale":[1.0,
		1.0,
		1.0],
		"children":[3,
		56,
		61]
	},
	{
		"name":"Spine1_M",
		"translation":[14.574485778808594,
		0.0,
		-1.7985558788818913e-14],
		"rotation":[-4.988158555962941e-32,
		-2.632655327863333e-17,
		0.05209861695766449,
		-0.9986419677734375],
		"scale":[1.0,
		1.0,
		1.0],
		"children":[4]
	},
	{
		"name":"Chest_M",
		"translation":[14.11415958404541,
		7.105427357601002e-15,
		-5.1974661621529038e-15],
		"rotation":[1.4738181996708173e-18,
		-7.976911067276294e-20,
		0.05404501408338547,
		0.9985384941101074],
		"scale":[1.0,
		1.0,
		1.0],
		"children":[5,
		14,
		35]
	},
	{
		"name":"Neck_M",
		"translation":[25.879619598388673,
		8.881784197001253e-16,
		3.946304139587978e-14],
		"rotation":[0.0,
		0.0,
		0.2837623655796051,
		0.9588946104049683],
		"scale":[1.0,
		1.0,
		1.0],
		"children":[6]
	},
	{
		"name":"Head_M",
		"translation":[8.263566970825196,
		-2.1316282072803007e-14,
		6.683193715372468e-16],
		"rotation":[-1.7708878123576255e-16,
		-4.537646488308668e-17,
		0.2482166737318039,
		-0.9687045216560364],
		"scale":[1.0,
		1.0,
		1.0],
		"children":[7,
		8,
		10,
		12]
	},
	{
		"name":"HeadEnd_M",
		"translation":[32.254600524902347,
		-7.105427357601002e-15,
		1.1509900427501482e-14],
		"rotation":[0.0,
		0.0,
		0.0,
		-1.0],
		"scale":[1.0,
		1.0,
		1.0]
	},
	{
		"name":"Eye_R",
		"translation":[6.336130142211914,
		11.622807502746582,
		-5.910815715789795],
		"rotation":[-9.30028387635673e-10,
		9.294924296909812e-8,
		-0.7010958194732666,
		-0.7130671143531799],
		"scale":[1.0,
		1.0,
		1.0],
		"children":[9]
	},
	{
		"name":"EyeEnd_R",
		"translation":[3.562150239944458,
		-5.684341886080802e-14,
		1.7763568394002506e-15],
		"rotation":[0.0,
		0.0,
		0.0,
		-1.0],
		"scale":[1.0,
		1.0,
		1.0]
	},
	{
		"name":"Jaw_M",
		"translation":[-1.5627237558364869,
		4.602523326873779,
		-1.0558060705551618e-14],
		"rotation":[1.4212875365237239e-16,
		1.121210497788923e-16,
		0.7851133942604065,
		0.6193520426750183],
		"scale":[1.0,
		1.0,
		1.0],
		"children":[11]
	},
	{
		"name":"JawEnd_M",
		"translation":[15.45386791229248,
		-2.842170943040401e-14,
		6.8173340880643959e-15],
		"rotation":[-1.232595164407831e-32,
		0.0,
		0.0,
		-1.0],
		"scale":[1.0,
		1.0,
		1.0]
	},
	{
		"name":"Eye_L",
		"translation":[6.336130142211914,
		11.622807502746582,
		5.910815715789795],
		"rotation":[-7.642846045711333e-15,
		9.386365462660251e-8,
		0.7010958194732666,
		0.7130671143531799],
		"scale":[1.0,
		1.0,
		1.0],
		"children":[13]
	},
	{
		"name":"EyeEnd_L",
		"translation":[3.562150239944458,
		-5.684341886080802e-14,
		-8.881784197001253e-16],
		"rotation":[-6.450315481743019e-8,
		-1.5988499058039452e-7,
		1.0536722605536397e-8,
		-1.0],
		"scale":[1.0,
		1.0,
		1.0]
	},
	{
		"name":"Scapula_R",
		"translation":[15.680947303771973,
		-7.080423831939697,
		-13.884281158447266],
		"rotation":[0.09458255022764206,
		-0.7007970213890076,
		0.028649644926190378,
		-0.7064819931983948],
		"scale":[1.0,
		1.0,
		1.0],
		"children":[15]
	},
	{
		"name":"Shoulder_R",
		"translation":[17.47812271118164,
		-2.6645352591003758e-14,
		-6.821210263296962e-13],
		"rotation":[-0.005125515628606081,
		0.062061600387096408,
		0.039798855781555179,
		0.9972653388977051],
		"scale":[1.0,
		1.0,
		1.0],
		"children":[16]
	},
	{
		"name":"Elbow_R",
		"translation":[23.397409439086915,
		1.2434497875801754e-14,
		-2.3357024758752233e-7],
		"rotation":[-2.0683590951087184e-10,
		1.1809038191756827e-8,
		0.017512354999780656,
		0.9998466372489929],
		"scale":[1.0,
		1.0,
		1.0],
		"children":[17]
	},
	{
		"name":"Wrist_R",
		"translation":[29.168611526489259,
		2.842170943040401e-14,
		3.9926646877574969e-7],
		"rotation":[0.0000166628942679381,
		-0.0037899271119385959,
		-0.06921765953302384,
		0.9975943565368652],
		"scale":[1.0,
		1.0,
		1.0],
		"children":[18,
		22,
		26,
		30,
		34]
	},
	{
		"name":"MiddleFinger1_R",
		"translation":[15.783679008483887,
		-1.794120407794253e-13,
		-1.6200374375330284e-12],
		"rotation":[0.00052139803301543,
		0.007339071482419968,
		-0.03403489664196968,
		-0.9993935823440552],
		"scale":[1.0,
		1.0,
		1.0],
		"children":[19]
	},
	{
		"name":"MiddleFinger2_R",
		"translation":[5.70207405090332,
		1.0658141036401503e-14,
		0.0],
		"rotation":[0.00019843933114316314,
		0.038766223937273028,
		-0.00004421480480232276,
		-0.9992482662200928],
		"scale":[1.0,
		1.0,
		1.0],
		"children":[20]
	},
	{
		"name":"MiddleFinger3_R",
		"translation":[5.109655857086182,
		-1.5987211554602255e-14,
		-4.263256414560601e-14],
		"rotation":[0.0002903968561440706,
		-0.012905032373964787,
		-0.00003869841020787135,
		0.999916672706604],
		"scale":[1.0,
		1.0,
		1.0],
		"children":[21]
	},
	{
		"name":"MiddleFinger4_R",
		"translation":[6.845997333526611,
		1.2434497875801754e-14,
		1.4210854715202005e-14],
		"rotation":[0.0,
		-8.673617379884036e-19,
		0.0,
		-1.0],
		"scale":[1.0,
		1.0,
		1.0]
	},
	{
		"name":"ThumbFinger1_R",
		"translation":[5.298964977264404,
		6.046003341674805,
		-1.202913522720337],
		"rotation":[0.473410427570343,
		0.23467810451984406,
		-0.3236815929412842,
		-0.7848814725875855],
		"scale":[1.0,
		1.0,
		1.0],
		"children":[23]
	},
	{
		"name":"ThumbFinger2_R",
		"translation":[5.451401233673096,
		1.5418706311720599e-8,
		2.02061425369493e-8],
		"rotation":[-8.326211448779115e-17,
		-0.010523251257836819,
		8.762367655756382e-19,
		-0.9999446272850037],
		"scale":[1.0,
		1.0,
		1.0],
		"children":[24]
	},
	{
		"name":"ThumbFinger3_R",
		"translation":[4.843122959136963,
		-8.526512829121202e-14,
		-1.9095836023552694e-14],
		"rotation":[-2.124463452379821e-11,
		-0.06932903081178665,
		-2.314060623120895e-7,
		0.9975938200950623],
		"scale":[1.0,
		1.0,
		1.0],
		"children":[25]
	},
	{
		"name":"ThumbFinger4_R",
		"translation":[6.226835250854492,
		-4.263256414560601e-14,
		2.6645352591003758e-15],
		"rotation":[-4.163336342344337e-17,
		0.0,
		0.0,
		-1.0],
		"scale":[1.0,
		1.0,
		1.0]
	},
	{
		"name":"IndexFinger1_R",
		"translation":[14.689059257507325,
		5.569554328918457,
		0.2503722310066223],
		"rotation":[0.008809369057416916,
		0.0012474433751776815,
		0.17206639051437379,
		0.9850451946258545],
		"scale":[1.0,
		1.0,
		1.0],
		"children":[27]
	},
	{
		"name":"IndexFinger2_R",
		"translation":[5.825937271118164,
		2.1456969534483506e-10,
		1.0186482768403949e-9],
		"rotation":[0.000019222034097765574,
		0.05242756009101868,
		-0.0003661356749944389,
		-0.9986246824264526],
		"scale":[1.0,
		1.0,
		1.0],
		"children":[28]
	},
	{
		"name":"IndexFinger3_R",
		"translation":[4.828011989593506,
		7.105427357601002e-15,
		-8.526512829121202e-14],
		"rotation":[0.014282443560659886,
		0.037200894206762317,
		-0.00021885571186430752,
		-0.9992057085037231],
		"scale":[1.0,
		1.0,
		1.0],
		"children":[29]
	},
	{
		"name":"IndexFinger4_R",
		"translation":[6.598520755767822,
		-6.039613253960852e-14,
		4.689582056016661e-13],
		"rotation":[0.0,
		0.0,
		0.0,
		-1.0],
		"scale":[1.0,
		1.0,
		1.0]
	},
	{
		"name":"PinkyFinger1_R",
		"translation":[15.660605430603028,
		-5.800750732421875,
		-0.35038429498672488],
		"rotation":[0.02089109644293785,
		-0.014262031763792038,
		0.09890560060739517,
		-0.9947752952575684],
		"scale":[1.0,
		1.0,
		1.0],
		"children":[31]
	},
	{
		"name":"PinkyFinger2_R",
		"translation":[5.352322578430176,
		1.7763568394002506e-14,
		-8.526512829121202e-14],
		"rotation":[0.0023744271602481605,
		-0.036730919033288959,
		-0.001671475823968649,
		0.9993209838867188],
		"scale":[1.0,
		1.0,
		1.0],
		"children":[32]
	},
	{
		"name":"PinkyFinger3_R",
		"translation":[4.403139591217041,
		1.0658141036401503e-14,
		8.526512829121202e-14],
		"rotation":[0.018676765263080598,
		-0.016214953735470773,
		-0.00039584634942002594,
		0.9996939897537231],
		"scale":[1.0,
		1.0,
		1.0],
		"children":[33]
	},
	{
		"name":"PinkyFinger4_R",
		"translation":[5.884307384490967,
		-4.618527782440651e-14,
		5.826450433232822e-13],
		"rotation":[0.0,
		-3.469446951953614e-18,
		0.0,
		-1.0],
		"scale":[1.0,
		1.0,
		1.0]
	},
	{
		"name":"Weapon_R",
		"translation":[9.931361198425293,
		2.6995890140533449,
		-8.129396438598633],
		"rotation":[0.10143015533685684,
		-0.9947574734687805,
		-0.003877033945173025,
		-0.012430361472070217],
		"scale":[1.0,
		1.0,
		1.0]
	},
	{
		"name":"Scapula_L",
		"translation":[15.680947303771973,
		-7.080423831939697,
		13.884281158447266],
		"rotation":[0.7007970213890076,
		0.09458254277706146,
		-0.7064819931983948,
		-0.028649643063545228],
		"scale":[1.0,
		1.0,
		1.0],
		"children":[36]
	},
	{
		"name":"Shoulder_L",
		"translation":[-17.47812271118164,
		3.552713678800501e-14,
		6.821210263296962e-13],
		"rotation":[-0.005125515628606081,
		0.062061600387096408,
		0.039798855781555179,
		0.9972653388977051],
		"scale":[1.0,
		1.0,
		1.0],
		"children":[37]
	},
	{
		"name":"Elbow_L",
		"translation":[-23.397409439086915,
		-5.3290705182007517e-15,
		2.3357020495495818e-7],
		"rotation":[1.290280504662178e-8,
		1.2053158471303505e-8,
		0.017512354999780656,
		0.9998466372489929],
		"scale":[1.0,
		1.0,
		1.0],
		"children":[38]
	},
	{
		"name":"Wrist_L",
		"translation":[-29.168611526489259,
		0.0,
		-3.984204113294254e-7],
		"rotation":[0.0000166628942679381,
		-0.0037899271119385959,
		-0.06921765953302384,
		0.9975943565368652],
		"scale":[1.0,
		1.0,
		1.0],
		"children":[39,
		43,
		47,
		51,
		55]
	},
	{
		"name":"MiddleFinger1_L",
		"translation":[-15.783679008483887,
		1.971756091734278e-13,
		1.5631940186722204e-12],
		"rotation":[0.00052139803301543,
		0.007339071482419968,
		-0.03403489664196968,
		-0.9993935823440552],
		"scale":[1.0,
		1.0,
		1.0],
		"children":[40]
	},
	{
		"name":"MiddleFinger2_L",
		"translation":[-5.70207405090332,
		-7.105427357601002e-15,
		1.4210854715202005e-14],
		"rotation":[0.00019843933114316314,
		0.038766223937273028,
		-0.00004421480116434395,
		-0.9992482662200928],
		"scale":[1.0,
		1.0,
		1.0],
		"children":[41]
	},
	{
		"name":"MiddleFinger3_L",
		"translation":[-5.109655857086182,
		3.552713678800501e-14,
		7.105427357601002e-14],
		"rotation":[0.0002903968561440706,
		-0.012905032373964787,
		-0.00003869841020787135,
		0.999916672706604],
		"scale":[1.0,
		1.0,
		1.0],
		"children":[42]
	},
	{
		"name":"MiddleFinger4_L",
		"translation":[-6.845997333526611,
		-7.105427357601002e-15,
		-5.684341886080802e-14],
		"rotation":[0.0,
		-1.734723475976807e-18,
		0.0,
		-1.0],
		"scale":[1.0,
		1.0,
		1.0]
	},
	{
		"name":"ThumbFinger1_L",
		"translation":[-5.298964977264404,
		-6.046003341674805,
		1.202913522720337],
		"rotation":[0.473410427570343,
		0.23467810451984406,
		-0.3236815929412842,
		-0.7848814725875855],
		"scale":[1.0,
		1.0,
		1.0],
		"children":[44]
	},
	{
		"name":"ThumbFinger2_L",
		"translation":[-5.451401233673096,
		-1.5418706311720599e-8,
		-2.0206131878808266e-8],
		"rotation":[8.881292388496253e-16,
		-0.010523251257836819,
		-9.34652467229286e-18,
		-0.9999446272850037],
		"scale":[1.0,
		1.0,
		1.0],
		"children":[45]
	},
	{
		"name":"ThumbFinger3_L",
		"translation":[-4.843122959136963,
		1.1368683772161604e-13,
		6.261657858885883e-14],
		"rotation":[-1.2910265738408367e-11,
		-0.06932903081178665,
		-2.3152597350417637e-7,
		0.9975938200950623],
		"scale":[1.0,
		1.0,
		1.0],
		"children":[46]
	},
	{
		"name":"ThumbFinger4_L",
		"translation":[-6.226835250854492,
		5.684341886080802e-14,
		-7.993605777301127e-15],
		"rotation":[0.0,
		0.0,
		0.0,
		-1.0],
		"scale":[1.0,
		1.0,
		1.0]
	},
	{
		"name":"IndexFinger1_L",
		"translation":[-14.689059257507325,
		-5.569554328918457,
		-0.2503722310066223],
		"rotation":[0.008809369057416916,
		0.0012474433751776815,
		0.17206639051437379,
		0.9850451946258545],
		"scale":[1.0,
		1.0,
		1.0],
		"children":[48]
	},
	{
		"name":"IndexFinger2_L",
		"translation":[-5.825937271118164,
		-2.1458035348587146e-10,
		-1.0186056442762493e-9],
		"rotation":[0.000019222034097765574,
		0.05242756009101868,
		-0.0003661356749944389,
		-0.9986246824264526],
		"scale":[1.0,
		1.0,
		1.0],
		"children":[49]
	},
	{
		"name":"IndexFinger3_L",
		"translation":[-4.828011989593506,
		-7.105427357601002e-15,
		7.105427357601002e-14],
		"rotation":[0.014282443560659886,
		0.037200894206762317,
		-0.00021885571186430752,
		-0.9992057085037231],
		"scale":[1.0,
		1.0,
		1.0],
		"children":[50]
	},
	{
		"name":"IndexFinger4_L",
		"translation":[-6.598520755767822,
		6.039613253960852e-14,
		-4.405364961712621e-13],
		"rotation":[0.0,
		0.0,
		0.0,
		-1.0],
		"scale":[1.0,
		1.0,
		1.0]
	},
	{
		"name":"PinkyFinger1_L",
		"translation":[-15.660605430603028,
		5.800750732421875,
		0.35038429498672488],
		"rotation":[0.02089109644293785,
		-0.014262031763792038,
		0.09890560060739517,
		-0.9947752952575684],
		"scale":[1.0,
		1.0,
		1.0],
		"children":[52]
	},
	{
		"name":"PinkyFinger2_L",
		"translation":[-5.352322578430176,
		1.0658141036401503e-14,
		5.684341886080802e-14],
		"rotation":[0.0023744271602481605,
		-0.036730919033288959,
		-0.001671475823968649,
		0.9993209838867188],
		"scale":[1.0,
		1.0,
		1.0],
		"children":[53]
	},
	{
		"name":"PinkyFinger3_L",
		"translation":[-4.403139591217041,
		-5.3290705182007517e-14,
		-7.105427357601002e-14],
		"rotation":[0.018676765263080598,
		-0.016214953735470773,
		-0.00039584634942002594,
		0.9996939897537231],
		"scale":[1.0,
		1.0,
		1.0],
		"children":[54]
	},
	{
		"name":"PinkyFinger4_L",
		"translation":[-5.884307384490967,
		6.394884621840902e-14,
		-5.826450433232822e-13],
		"rotation":[0.0,
		0.0,
		0.0,
		-1.0],
		"scale":[1.0,
		1.0,
		1.0]
	},
	{
		"name":"Weapon_L",
		"translation":[-9.93136978149414,
		-2.69954514503479,
		8.129440307617188],
		"rotation":[0.9936733841896057,
		0.10187037289142609,
		0.008062493987381459,
		-0.04659012332558632],
		"scale":[1.0,
		1.0,
		1.0]
	},
	{
		"name":"Hip_R",
		"translation":[-0.9007440805435181,
		-2.317033052444458,
		-14.572510719299317],
		"rotation":[0.06790274381637573,
		-0.9822933077812195,
		0.09817275404930115,
		-0.14439937472343446],
		"scale":[1.0,
		1.0,
		1.0],
		"children":[57]
	},
	{
		"name":"Knee_R",
		"translation":[27.48822784423828,
		-4.440892098500626e-15,
		-2.842170943040401e-14],
		"rotation":[-2.635270641349654e-16,
		-8.919179179610203e-18,
		0.03382603079080582,
		-0.9994277358055115],
		"scale":[1.0,
		1.0,
		1.0],
		"children":[58]
	},
	{
		"name":"Ankle_R",
		"translation":[27.17888069152832,
		-1.970645868709653e-14,
		-3.3722358239174358e-11],
		"rotation":[0.17430754005908967,
		0.1555686891078949,
		0.037546295672655109,
		0.9715994596481323],
		"scale":[1.0,
		1.0,
		1.0],
		"children":[59]
	},
	{
		"name":"Toes_R",
		"translation":[9.857527732849121,
		23.980100631713868,
		1.4780530932512193e-7],
		"rotation":[0.033186640590429309,
		0.02068280056118965,
		-0.49655088782310488,
		-0.8671263456344605],
		"scale":[1.0,
		1.0,
		1.0],
		"children":[60]
	},
	{
		"name":"ToesEnd_R",
		"translation":[15.89427661895752,
		1.7763568394002506e-14,
		-3.552713678800501e-15],
		"rotation":[0.0,
		-2.7755575615628916e-17,
		0.0,
		-1.0],
		"scale":[1.0,
		1.0,
		1.0]
	},
	{
		"name":"Hip_L",
		"translation":[-0.9007440805435181,
		-2.317033052444458,
		14.572510719299317],
		"rotation":[0.9822933077812195,
		0.06790274381637573,
		-0.14439937472343446,
		-0.09817276149988175],
		"scale":[1.0,
		1.0,
		1.0],
		"children":[62]
	},
	{
		"name":"Knee_L",
		"translation":[-27.48822784423828,
		-4.440892098500626e-15,
		3.963549488616991e-10],
		"rotation":[-1.8654959662611125e-16,
		-2.3195703446005438e-16,
		0.03382603079080582,
		-0.9994277358055115],
		"scale":[1.0,
		1.0,
		1.0],
		"children":[63]
	},
	{
		"name":"Ankle_L",
		"translation":[-27.17888069152832,
		-3.0142555118573e-14,
		4.247127094458847e-10],
		"rotation":[0.17430754005908967,
		0.1555686891078949,
		0.037546295672655109,
		0.9715994596481323],
		"scale":[1.0,
		1.0,
		1.0],
		"children":[64]
	},
	{
		"name":"Toes_L",
		"translation":[-9.857527732849121,
		-23.980100631713868,
		-1.523069101949659e-7],
		"rotation":[0.033186640590429309,
		0.02068280056118965,
		-0.49655088782310488,
		-0.8671263456344605],
		"scale":[1.0,
		1.0,
		1.0],
		"children":[65]
	},
	{
		"name":"ToesEnd_L",
		"translation":[-15.89427661895752,
		-2.1316282072803007e-14,
		1.0658141036401503e-14],
		"rotation":[-1.4901161193847657e-8,
		0.0,
		0.0,
		-1.0],
		"scale":[1.0,
		1.0,
		1.0]
	},
	{
		"name":"INU_AirForceOne_589_Cloth",
		"translation":[0.0,
		0.0,
		0.0],
		"rotation":[0.0,
		0.0,
		0.0,
		-1.0],
		"scale":[1.0,
		1.0,
		1.0],
		"children":[67]
	},
	{
		"name":"INU_AirForceOne_589_Cloth",
		"mesh":0,
		"skin":0
	}],
	"asset":{
		"version":"2.0",
		"generator":"Created using the official Cinema 4D glTF Exporter 1.000x284978"
	},
	"scenes":[{
		"nodes":[0]
	}],
	"meshes":[{
		"name":"INU_AirForceOne_589_Cloth",
		"primitives":[{
			"attributes":{
				"POSITION":1,
				"TEXCOORD_0":2,
				"JOINTS_0":3,
				"WEIGHTS_0":4
			},
			"indices":0,
			"material":0
		}]
	}],
	"skins":[{
		"inverseBindMatrices":5,
		"joints":[5,
		38,
		37,
		36,
		35,
		17,
		16,
		15,
		14,
		4,
		3,
		61,
		56,
		2,
		6]
	}],
	"accessors":[{
		"bufferView":0,
		"type":"SCALAR",
		"componentType":5123,
		"count":10164,
		"byteOffset":0,
		"min":[0],
		"max":[2561]
	},
	{
		"bufferView":1,
		"type":"VEC3",
		"componentType":5126,
		"count":2562,
		"byteOffset":0,
		"min":[-86.02999877929688,
		62.84558868408203,
		-26.47848892211914],
		"max":[86.02999877929688,
		144.70001220703126,
		38.44150924682617]
	},
	{
		"bufferView":1,
		"type":"VEC2",
		"componentType":5126,
		"count":2562,
		"byteOffset":12,
		"min":[0.003890163032338023,
		-0.9951000213623047],
		"max":[0.9958000183105469,
		-0.006399989128112793]
	},
	{
		"bufferView":2,
		"type":"VEC4",
		"componentType":5123,
		"count":2562,
		"byteOffset":0,
		"min":[0,
		0,
		0,
		0],
		"max":[13,
		14,
		14,
		14]
	},
	{
		"bufferView":3,
		"type":"VEC4",
		"componentType":5126,
		"count":2562,
		"byteOffset":0,
		"min":[0.3355458974838257,
		0.0,
		0.0,
		0.0],
		"max":[1.0,
		0.49715420603752139,
		0.31206226348876955,
		0.11474784463644028]
	},
	{
		"bufferView":4,
		"type":"MAT4",
		"componentType":5126,
		"count":15,
		"byteOffset":0,
		"min":[-0.9904470443725586,
		-0.2124791145324707,
		-0.93902188539505,
		0.0,
		-0.9552060961723328,
		-0.5105985403060913,
		-0.9985383749008179,
		0.0,
		-0.20273515582084657,
		-0.9967008829116821,
		-0.18599605560302735,
		0.0,
		-132.547607421875,
		-17.983753204345704,
		-117.48423767089844,
		1.0],
		"max":[4.855764071505454e-16,
		-2.1168238435140399e-18,
		1.0,
		0.0,
		0.9994151592254639,
		0.14715661108493806,
		0.9985383749008179,
		0.0,
		0.5105985403060913,
		0.9994151592254639,
		0.18599607050418855,
		0.0,
		71.87377166748047,
		61.94200134277344,
		117.48423767089844,
		1.0]
	}],
	"buffers":[{
		"uri":"data:application/octet-stream;base64,",
		"byteLength":133056
	},
	{
		"uri":"data:application/octet-stream;base64,",
		"byteLength":960
	}],
	"images":[{
		"uri":"data:image/jpeg;base64,"
	}],
	"samplers":[{
		"magFilter":9729,
		"minFilter":9729,
		"wrapS":10497,
		"wrapT":10497
	}],
	"textures":[{
		"sampler":0,
		"source":0
	}],
	"materials":[{
		"pbrMetallicRoughness":{
			"baseColorTexture":{
				"index":0
			},
			"baseColorFactor":[1.0,
			1.0,
			1.0,
			1.0],
			"metallicFactor":1.0,
			"roughnessFactor":1.0
		},
		"emissiveFactor":[0.0,
		0.0,
		0.0],
		"alphaMode":"OPAQUE",
		"doubleSided":false,
		"name":"mtl_INU_AirForceOne_589_Cloth"
	}]
}